<svg width="160" height="161" viewBox="0 0 160 161" fill="none" xmlns="http://www.w3.org/2000/svg">
<g clip-path="url(#clip0_5_226)">
<path d="M144.902 112.1C145.471 112.358 145.921 112.821 146.164 113.397C146.258 113.674 146.295 113.967 146.274 114.259C146.252 114.55 146.172 114.834 146.038 115.094C145.904 115.354 145.719 115.584 145.495 115.77C145.27 115.957 145.01 116.096 144.731 116.179C144.126 116.32 143.492 116.225 142.955 115.913L142.331 115.601C141.767 115.343 141.321 114.879 141.085 114.304C140.908 113.746 140.957 113.141 141.223 112.62C141.489 112.099 141.948 111.704 142.503 111.522C143.105 111.384 143.737 111.473 144.279 111.772L144.902 112.1ZM149.358 93.3465L149.654 91.5962L142.051 90.2365L142.409 88.2361L159.314 91.268L158.925 93.3309L151.431 91.9869L151.166 93.5497L157.71 100.207L157.367 102.411L150.262 95.2062L140.508 99.8946L140.929 97.5035L149.358 93.3465ZM149.109 74.5928L149.249 79.7032L157.04 77.0152L149.109 74.5928ZM147.302 80.3283L147.13 74.0771L142.69 72.7644V70.6858L160 76.0775V77.8279L142.986 83.9853V81.9068L147.302 80.3283ZM149.14 64.8253L147.27 58.1834L141.381 59.8556L143.562 67.5134L141.786 68.076L139.059 58.4647L155.591 53.7763L158.271 63.2782L156.51 63.7939L154.391 56.2612L149.047 57.824L150.932 64.4659L149.14 64.8253ZM150.792 46.5718L148.392 42.3678L135.102 50.0256L134.089 48.2596L147.395 40.6331L144.98 36.4448L146.538 35.5228L152.35 45.681L150.792 46.5718ZM131.409 36.7418C131.676 36.4956 131.892 36.1991 132.044 35.8693C132.196 35.5395 132.282 35.1827 132.297 34.8195C132.224 33.789 131.904 32.7916 131.362 31.9127C130.643 30.6869 130.236 29.3019 130.178 27.8807C130.18 27.2931 130.302 26.7121 130.538 26.1743C130.774 25.6364 131.119 25.1532 131.549 24.7551C131.999 24.3123 132.536 23.9705 133.127 23.7522C133.718 23.534 134.349 23.4443 134.977 23.4892C136.345 23.5912 137.62 24.2248 138.53 25.2551C139.051 25.7617 139.459 26.3731 139.727 27.0492C139.996 27.7253 140.119 28.4507 140.088 29.1778C140.067 29.8445 139.911 30.5 139.63 31.1044C139.348 31.7089 138.948 32.2497 138.452 32.6941L137.112 31.2563C137.791 30.6641 138.211 29.8277 138.28 28.9277C138.271 28.4816 138.171 28.042 137.986 27.6362C137.801 27.2303 137.536 26.8667 137.205 26.5679C136.657 25.9104 135.874 25.495 135.024 25.4114C134.645 25.4005 134.268 25.4685 133.917 25.6111C133.565 25.7536 133.247 25.9677 132.983 26.2397C132.728 26.4805 132.53 26.7751 132.404 27.1023C132.277 27.4294 132.225 27.7807 132.25 28.1307C132.374 29.1862 132.719 30.2035 133.263 31.1157C133.966 32.3249 134.332 33.7012 134.323 35.1008C134.281 35.6991 134.122 36.2833 133.855 36.8197C133.588 37.3561 133.217 37.8342 132.765 38.2264C132.324 38.6846 131.785 39.0345 131.187 39.2486C130.59 39.4628 129.951 39.5355 129.321 39.461C127.953 39.2526 126.703 38.5596 125.8 37.5075C124.787 36.4662 124.174 35.0987 124.071 33.6474C124.003 32.9328 124.11 32.2126 124.382 31.5484C124.653 30.8843 125.081 30.296 125.629 29.8342L126.969 31.2407C126.611 31.5508 126.328 31.9385 126.142 32.3744C125.956 32.8103 125.871 33.2831 125.893 33.7568C125.978 34.7054 126.398 35.5925 127.078 36.2573C127.655 36.9265 128.45 37.3693 129.321 37.5075C129.705 37.5531 130.094 37.5075 130.456 37.3745C130.819 37.2415 131.145 37.0247 131.409 36.7418ZM115.065 17.0348C115.346 16.4835 115.825 16.0592 116.405 15.8471C116.685 15.7624 116.98 15.736 117.271 15.7696C117.561 15.8032 117.842 15.8959 118.096 16.0423C118.35 16.1886 118.571 16.3854 118.747 16.6205C118.922 16.8557 119.048 17.1243 119.116 17.4099C119.222 18.0208 119.1 18.6497 118.773 19.1758L118.415 19.801C118.133 20.3523 117.655 20.7766 117.075 20.9887C116.509 21.1417 115.905 21.063 115.397 20.77C114.888 20.4769 114.517 19.9935 114.364 19.4259C114.258 18.815 114.38 18.1866 114.706 17.6599L115.065 17.0348ZM95.355 12.5027L100.216 13.8779L99.9669 5.67322L95.355 12.5027ZM100.263 15.9408L94.2176 14.1749L91.6311 18.0506L89.6368 17.488L99.9201 2.51636L101.587 2.9852L102.398 21.1294L100.403 20.5511L100.263 15.9408ZM77.9044 15.4251L86.3025 15.6439V17.488L75.5984 17.1911V15.4564L83.9653 2.03189L76.0503 1.82873V-0.0153809L86.2869 0.250296V1.9225L77.9044 15.4251ZM62.8532 17.8006L71.0488 15.9096L71.4539 17.7068L61.0303 20.1135L60.6408 18.4101L65.4397 3.31339L57.6492 5.09499L57.2441 3.29776L67.2938 1.00044L67.6677 2.56324L62.8532 17.8006ZM56.3404 21.8795L54.4707 22.7234L47.397 7.09538L49.2667 6.25146L56.3404 21.8795ZM37.9706 22.0514L41.0868 20.051C41.4629 19.8445 41.7865 19.5538 42.0324 19.2014C42.2783 18.849 42.4399 18.4446 42.5046 18.0194C42.5798 17.1739 42.3595 16.3286 41.8814 15.6283C41.4375 14.9047 40.7618 14.3537 39.9649 14.0655C39.5527 13.9392 39.1167 13.9115 38.6918 13.9848C38.267 14.0581 37.8652 14.2302 37.5187 14.4874L34.4026 16.5035L37.9706 22.0514ZM38.9522 23.6142L42.676 29.4278L40.9621 30.5218L31.6915 16.019L36.5372 12.8934C37.1007 12.4756 37.7465 12.1829 38.4315 12.0347C39.1165 11.8865 39.8251 11.8862 40.5103 12.0338C41.8271 12.397 42.9472 13.2678 43.6264 14.4562C44.4209 15.586 44.7451 16.9819 44.5301 18.3476C44.3641 19.0052 44.0655 19.6218 43.6528 20.1594C43.2402 20.6969 42.7222 21.144 42.1307 21.4732L38.9522 23.6142ZM23.3713 35.1633C22.8817 34.7777 22.5582 34.2183 22.4676 33.6005C22.4315 33.318 22.459 33.0311 22.5479 32.7606C22.6369 32.4902 22.7852 32.2432 22.9818 32.0377C23.1656 31.7999 23.4021 31.6084 23.6725 31.4782C23.943 31.3479 24.2399 31.2827 24.5399 31.2876C25.1611 31.2882 25.7582 31.5288 26.207 31.9596L26.7524 32.4284C27.242 32.814 27.5655 33.3734 27.6561 33.9912C27.6945 34.5775 27.4996 35.1552 27.1141 35.5976C26.7285 36.04 26.1838 36.3109 25.5994 36.3511C24.9854 36.3374 24.3978 36.0983 23.9478 35.6791L23.3713 35.1633ZM24.6022 50.1506L23.7764 52.0103L16.8585 48.8847L13.8981 55.5579L20.816 58.6835L19.9747 60.5433L4.39381 53.4481L5.17285 51.5728L12.231 54.7765L15.2381 48.1033L8.17996 44.9152L9.00575 43.0555L24.6022 50.1506ZM13.6956 66.9664C13.3383 66.9097 12.9732 66.9262 12.6224 67.0148C12.2717 67.1035 11.9424 67.2624 11.6545 67.4821C10.8957 68.1847 10.3228 69.0654 9.98734 70.0451C9.53281 71.3384 8.78007 72.5058 7.79044 73.452C7.32906 73.8297 6.79426 74.1067 6.22016 74.2655C5.64606 74.4242 5.04527 74.4612 4.45613 74.3741C3.83496 74.3034 3.23588 74.101 2.69863 73.7803C2.16138 73.4597 1.69825 73.0282 1.33996 72.5143C0.566672 71.428 0.237704 70.0857 0.420684 68.7636C0.474382 68.0346 0.682902 67.3256 1.03225 66.6841C1.3816 66.0425 1.8637 65.4834 2.4462 65.0441C2.97659 64.6295 3.58673 64.3294 4.2383 64.1627C4.88986 63.9959 5.56876 63.9661 6.23235 64.0752L5.99864 66.0131C5.11134 65.8621 4.20031 66.0639 3.45895 66.5757C3.09781 66.8582 2.80112 67.2149 2.58881 67.6219C2.37651 68.029 2.2535 68.4768 2.22807 68.9355C2.14026 69.351 2.13781 69.7801 2.22086 70.1966C2.3039 70.613 2.4707 71.0082 2.71107 71.3578C2.94453 71.6631 3.24061 71.9146 3.57929 72.0952C3.91798 72.2759 4.29138 72.3815 4.67426 72.4049C5.0286 72.4573 5.3902 72.4266 5.73077 72.3155C6.07135 72.2043 6.38167 72.0156 6.63745 71.7642C7.36103 70.9994 7.92283 70.0957 8.28903 69.1074C8.78482 67.7938 9.62448 66.6384 10.7196 65.763C11.6709 65.0655 12.8562 64.7682 14.0228 64.9347C14.6519 64.9963 15.259 65.1997 15.7987 65.5299C16.3383 65.8601 16.7965 66.3084 17.139 66.8413C17.8645 68.0453 18.1302 69.4723 17.8868 70.8577C17.7232 72.3021 17.0554 73.6418 16.0016 74.6397C15.4936 75.1395 14.8726 75.5086 14.1916 75.7154C13.5106 75.9222 12.7898 75.9607 12.0908 75.8275L12.3401 73.9052C12.8033 73.9891 13.2795 73.9665 13.7329 73.8393C14.1863 73.7121 14.605 73.4835 14.9576 73.1707C15.6409 72.5019 16.0613 71.6087 16.1418 70.6546C16.3101 69.7925 16.1606 68.8984 15.7211 68.1385C15.5226 67.8033 15.2459 67.5215 14.9148 67.3173C14.5836 67.1131 14.208 66.9927 13.8202 66.9664H13.6956ZM17.139 81.4848V83.5321L0 83.9697V81.9068L17.139 81.4848ZM9.98734 91.0023L11.5454 97.6911L18.9308 95.9876L19.3982 97.9724L2.64875 101.848L0.405103 92.2056L2.1969 91.7993L3.97312 99.5196L9.73805 98.1912L8.17996 91.4868L9.98734 91.0023ZM16.8429 115.882C16.3033 116.186 15.6712 116.281 15.0667 116.148C14.7897 116.061 14.5326 115.92 14.3103 115.732C14.088 115.545 13.9049 115.315 13.7716 115.057C13.6384 114.798 13.5575 114.515 13.5337 114.225C13.51 113.935 13.5438 113.643 13.6333 113.366C13.8761 112.79 14.3268 112.326 14.8953 112.069L15.5186 111.741C16.0556 111.429 16.6905 111.335 17.2948 111.475C17.5738 111.554 17.8325 111.693 18.053 111.882C18.2735 112.071 18.4507 112.305 18.5724 112.569C18.7133 112.828 18.7973 113.113 18.8188 113.407C18.8403 113.701 18.7988 113.996 18.6971 114.272C18.4547 114.84 18.0104 115.297 17.4506 115.554L16.8429 115.882Z" fill="#C9AB81"/>
<path d="M133.996 129.181L128.978 133.87L133.154 138.339L138.935 132.885L140.197 134.229L132.936 141.074L121.172 128.572L128.355 121.805L129.617 123.149L123.915 128.525L127.716 132.588L132.733 127.9L133.996 129.181ZM115.298 148.076C115.149 147.74 114.934 147.437 114.666 147.184C114.399 146.932 114.084 146.736 113.74 146.607C112.718 146.342 111.646 146.342 110.624 146.607C109.237 146.888 107.802 146.818 106.449 146.403C105.886 146.211 105.37 145.901 104.935 145.494C104.5 145.087 104.156 144.593 103.924 144.044C103.662 143.47 103.527 142.846 103.527 142.215C103.527 141.584 103.662 140.96 103.924 140.387C104.425 139.112 105.404 138.086 106.651 137.527C107.297 137.193 108.006 137.002 108.731 136.964C109.456 136.926 110.181 137.043 110.858 137.308C111.478 137.545 112.042 137.908 112.517 138.373C112.991 138.838 113.365 139.396 113.616 140.012V140.09L111.855 140.887C111.509 140.08 110.868 139.437 110.063 139.09C109.22 138.843 108.319 138.893 107.508 139.232C106.698 139.57 106.027 140.176 105.607 140.949C105.468 141.303 105.406 141.683 105.424 142.063C105.443 142.443 105.543 142.814 105.716 143.153C105.856 143.482 106.069 143.774 106.339 144.007C106.609 144.24 106.929 144.408 107.274 144.497C108.302 144.707 109.362 144.707 110.39 144.497C111.761 144.232 113.177 144.345 114.488 144.825C115.039 145.048 115.54 145.378 115.963 145.796C116.385 146.215 116.721 146.713 116.95 147.263C117.227 147.835 117.371 148.463 117.371 149.099C117.371 149.735 117.227 150.363 116.95 150.936C116.305 152.187 115.232 153.164 113.927 153.686C112.612 154.302 111.121 154.43 109.721 154.046C109.019 153.883 108.367 153.55 107.824 153.076C107.281 152.602 106.862 152.001 106.604 151.326L108.365 150.514C108.531 150.96 108.799 151.361 109.148 151.685C109.498 152.008 109.918 152.244 110.375 152.373C111.296 152.598 112.265 152.493 113.117 152.076C113.939 151.76 114.623 151.162 115.049 150.389C115.251 150.04 115.365 149.647 115.381 149.244C115.397 148.841 115.315 148.44 115.143 148.076H115.298ZM91.2572 143.122L92.1453 154.718C92.2582 155.5 92.2041 156.297 91.9865 157.057C91.7689 157.817 91.3929 158.522 90.8832 159.125C89.829 160.243 88.3811 160.905 86.8478 160.969C86.1155 161.053 85.3739 160.991 84.6655 160.787C83.957 160.583 83.2955 160.241 82.7189 159.781C82.1385 159.251 81.6729 158.608 81.3513 157.89C81.0296 157.172 80.8587 156.395 80.8492 155.608L79.9766 143.981L82.0021 143.825L82.8747 155.436C82.8809 156.516 83.3121 157.55 84.0744 158.312C84.4308 158.627 84.8499 158.862 85.3038 159.002C85.7578 159.143 86.2363 159.184 86.7076 159.125C87.2 159.112 87.6846 158.998 88.1319 158.791C88.5793 158.584 88.9799 158.288 89.3096 157.921C89.643 157.498 89.8868 157.01 90.0261 156.489C90.1654 155.968 90.1973 155.424 90.1198 154.889L89.2317 143.262L91.2572 143.122ZM65.0346 149.373C65.4637 148.069 65.4637 146.661 65.0346 145.356C64.848 144.8 64.5268 144.3 64.0999 143.899C63.673 143.498 63.1537 143.209 62.5884 143.059C62.057 142.896 61.4932 142.869 60.9488 142.981C60.4043 143.093 59.8966 143.34 59.4722 143.7C58.4419 144.594 57.7082 145.783 57.3688 147.107L56.4962 150.029C56.0693 151.334 56.0693 152.741 56.4962 154.046C56.6548 154.586 56.9485 155.076 57.3494 155.47C57.7503 155.864 58.2451 156.148 58.7866 156.296C59.3434 156.478 59.9363 156.519 60.5125 156.415C61.0888 156.311 61.6306 156.066 62.0898 155.702C63.1517 154.827 63.9054 153.632 64.2399 152.295L65.0346 149.373ZM66.1252 152.889C65.6487 154.72 64.5457 156.324 63.0091 157.421C62.3129 157.911 61.5131 158.232 60.6723 158.36C59.8315 158.487 58.9727 158.417 58.1634 158.156C57.3731 157.949 56.6425 157.558 56.0307 157.015C55.419 156.472 54.9433 155.792 54.6421 155.03C53.9682 153.254 53.9296 151.299 54.5331 149.498L55.39 146.56C55.8696 144.722 56.9712 143.109 58.5062 141.996C59.1686 141.505 59.9374 141.179 60.7498 141.043C61.5622 140.907 62.3951 140.966 63.1804 141.215C64.003 141.429 64.7634 141.835 65.3998 142.4C66.0361 142.965 66.5303 143.673 66.842 144.466C67.556 146.242 67.6113 148.216 66.9978 150.029L66.1252 152.889ZM36.989 148.607L35.3374 147.435L39.7468 141.184L33.8105 137.011L29.4011 143.262L27.7495 142.074L37.7369 128.009L39.3885 129.197L34.8856 135.448L40.8219 139.715L45.3248 133.463L46.9763 134.651L36.989 148.607Z" fill="#C9AB81"/>
<path d="M81.5036 64.075C86.9257 64.075 88.5461 67.2006 88.5461 69.4979C88.5461 71.7952 86.988 74.7177 81.5036 74.7177H70.8151V64.075H81.5036ZM81.5036 86.173C87.0659 86.173 88.5461 89.0798 88.5461 91.4553C88.5461 93.8308 86.988 96.8157 81.5036 96.8157H70.8151V86.1418L81.5036 86.173ZM55.9821 110.178H81.0205C97.5674 110.178 103.956 102.739 103.956 92.7681C103.956 86.8763 101.883 82.4223 96.8351 79.7343C101.883 77.0619 103.956 72.6704 103.956 66.9349C103.987 57.183 97.5363 50.6349 81.0205 50.6349H56.0911L55.9821 110.178Z" fill="#C9AB81"/>
</g>
<defs>
<clipPath id="clip0_5_226">
<rect width="160" height="161" fill="white"/>
</clipPath>
</defs>
</svg>
