<?xml version="1.0" encoding="utf-8"?>
<!-- Generator: Adobe Illustrator 28.1.0, SVG Export Plug-In . SVG Version: 6.00 Build 0)  -->
<svg version="1.1" id="Layer_1" xmlns="http://www.w3.org/2000/svg" xmlns:xlink="http://www.w3.org/1999/xlink" x="0px" y="0px"
	 viewBox="0 0 18 16" style="enable-background:new 0 0 18 16;" xml:space="preserve">
<style type="text/css">
	.st0{fill:#343434;}
</style>
<path class="st0" d="M2,1C0.9,1,0,1.9,0,3v1h18V3c0-1.1-0.9-2-2-2H2z M18,7H0v6c0,1.1,0.9,2,2,2h14c1.1,0,2-0.9,2-2V7z M3.5,11h2
	C5.8,11,6,11.2,6,11.5S5.8,12,5.5,12h-2C3.2,12,3,11.8,3,11.5S3.2,11,3.5,11z M7,11.5C7,11.2,7.2,11,7.5,11h4c0.3,0,0.5,0.2,0.5,0.5
	S11.8,12,11.5,12h-4C7.2,12,7,11.8,7,11.5z"/>
</svg>
