<svg width="10" height="10" viewBox="0 0 10 10" fill="none" xmlns="http://www.w3.org/2000/svg">
<circle cx="5" cy="5" r="5" fill="#D9D9D9"/>
<path d="M4.256 6.48V6.008C4.256 5.74667 4.29067 5.53333 4.36 5.368C4.42933 5.20267 4.51733 5.06133 4.624 4.944C4.73067 4.82667 4.84 4.71733 4.952 4.616C5.112 4.48267 5.25067 4.344 5.368 4.2C5.48533 4.056 5.544 3.86667 5.544 3.632C5.544 3.48267 5.50667 3.352 5.432 3.24C5.35733 3.128 5.264 3.04267 5.152 2.984C5.04 2.92 4.92267 2.888 4.8 2.888C4.62933 2.888 4.48267 2.92533 4.36 3C4.23733 3.06933 4.136 3.16533 4.056 3.288C3.976 3.40533 3.90933 3.53333 3.856 3.672L3.112 3.336C3.14933 3.224 3.21067 3.096 3.296 2.952C3.38133 2.808 3.49333 2.66667 3.632 2.528C3.776 2.38933 3.952 2.27467 4.16 2.184C4.368 2.09333 4.61067 2.048 4.888 2.048C5.192 2.048 5.464 2.104 5.704 2.216C5.944 2.328 6.136 2.496 6.28 2.72C6.424 2.93867 6.496 3.216 6.496 3.552C6.496 3.824 6.456 4.048 6.376 4.224C6.30133 4.4 6.20533 4.552 6.088 4.68C5.976 4.808 5.856 4.93067 5.728 5.048C5.62667 5.144 5.53067 5.24267 5.44 5.344C5.34933 5.44 5.27733 5.55733 5.224 5.696C5.176 5.82933 5.152 6.00267 5.152 6.216V6.48H4.256ZM4.704 8.024C4.544 8.024 4.41333 7.98133 4.312 7.896C4.21067 7.80533 4.16 7.688 4.16 7.544C4.16 7.40533 4.21067 7.288 4.312 7.192C4.41867 7.096 4.54933 7.048 4.704 7.048C4.864 7.048 4.99467 7.096 5.096 7.192C5.19733 7.288 5.248 7.40533 5.248 7.544C5.248 7.688 5.19733 7.80533 5.096 7.896C5 7.98133 4.86933 8.024 4.704 8.024Z" fill="#434343"/>
</svg>
