<svg width="17" height="17" viewBox="0 0 17 17" fill="none" xmlns="http://www.w3.org/2000/svg">
<mask id="mask0_170_72" style="mask-type:alpha" maskUnits="userSpaceOnUse" x="0" y="0" width="17" height="17">
<rect width="17" height="17" fill="#D9D9D9"/>
</mask>
<g mask="url(#mask0_170_72)">
<path d="M0.708333 14.875L8.5 1.41667L16.2917 14.875H0.708333ZM3.15208 13.4583H13.8479L8.5 4.25L3.15208 13.4583ZM8.5 12.75C8.70069 12.75 8.86892 12.6821 9.00469 12.5464C9.14045 12.4106 9.20833 12.2424 9.20833 12.0417C9.20833 11.841 9.14045 11.6727 9.00469 11.537C8.86892 11.4012 8.70069 11.3333 8.5 11.3333C8.29931 11.3333 8.13108 11.4012 7.99531 11.537C7.85955 11.6727 7.79167 11.841 7.79167 12.0417C7.79167 12.2424 7.85955 12.4106 7.99531 12.5464C8.13108 12.6821 8.29931 12.75 8.5 12.75ZM7.79167 10.625H9.20833V7.08333H7.79167V10.625Z" fill="#D02035"/>
</g>
</svg>
